# xmcd CD database file
#
# Track frame offsets:
#	150
#	4631
#	9009
#	26182
#	51382
#	67620
#	103214
#	124534
#	139777
#	150943
#	179988
#	203517
#	214988
#	243563
#	258045
#
# Disc length: 3643 seconds
#
# Revision: 2
# Processed by: cddbd v1.5.2PL0 Copyright (c) Steve Scherf et al.
# Submitted via: CDex 1.70beta1
#
DISCID=c30e390f
DTITLE=Kytami - ViolinistExtremist
DYEAR=2006
DGENRE=New Age
TTITLE0=Intro
TTITLE1=The Ballad of Jeremy Fisher
TTITLE2=Mek Sum Jig
TTITLE3=Lyrical Fight
TTITLE4=Blazed (live at the Safehouse)
TTITLE5=Get on the Bus
TTITLE6=Freehand
TTITLE7=Don't Wait For Me
TTITLE8=Safehouse Anthem
TTITLE9=Winds Over Arrakis
TTITLE10=Devil in Me
TTITLE11=Top Rock Flows
TTITLE12=Reflections
TTITLE13=Dancefloor (live at the Drink Nightclub)
TTITLE14=Death's Beauty Remix
EXTD=YEAR: 2006
EXTT0=
EXTT1=
EXTT2=
EXTT3=
EXTT4=
EXTT5=
EXTT6=
EXTT7=
EXTT8=
EXTT9=
EXTT10=
EXTT11=
EXTT12=
EXTT13=
EXTT14=
PLAYORDER=
